<svg version="1.1" id="Layer_1" xmlns="http://www.w3.org/2000/svg" xmlns:xlink="http://www.w3.org/1999/xlink" x="0px" y="0px"
	 width="100%" viewBox="0 0 144 144" enable-background="new 0 0 144 144" xml:space="preserve">
<path fill="#F0BB48" opacity="1.000000" stroke="none" 
	d="
M145.000000,58.000000 
	C145.000000,87.308289 145.000000,116.116577 145.000000,144.962433 
	C97.066765,144.962433 49.133492,144.962433 1.100108,144.962433 
	C1.100108,97.108620 1.100108,49.216957 1.100108,1.162649 
	C48.999554,1.162649 96.999733,1.162649 145.000000,1.162649 
	C145.000000,19.866125 145.000000,38.683064 145.000000,58.000000 
M17.157221,133.334290 
	C17.317802,133.609100 17.555565,133.769653 18.316511,134.353561 
	C24.940601,147.808624 57.228794,147.142014 64.001007,133.891495 
	C64.001007,133.891495 64.094368,134.026718 64.254471,134.806061 
	C65.426445,135.203796 66.597084,135.943512 67.770599,135.948120 
	C86.268585,136.020874 104.767090,136.028336 123.264915,135.938400 
	C124.610237,135.931885 125.951363,135.061111 127.762024,134.182632 
	C130.040726,131.887634 132.319427,129.592636 135.286743,126.685715 
	C135.510712,126.074272 135.928909,125.463310 135.930450,124.851303 
	C135.978134,105.946426 136.012283,87.041313 135.924683,68.136826 
	C135.919861,67.098534 134.849762,66.065170 134.029785,64.527229 
	C133.986908,64.345833 133.944031,64.164436 134.045212,63.231426 
	C133.988571,61.722195 133.931946,60.212963 134.002701,57.709225 
	C133.874405,53.921597 133.746094,50.133965 133.877838,45.377502 
	C133.926773,37.047077 134.066193,28.715841 133.991623,20.386522 
	C133.944809,15.157087 131.127457,12.047157 126.090958,12.034860 
	C90.761139,11.948601 55.430946,11.954914 20.101057,12.024513 
	C15.180228,12.034206 12.072289,14.938036 12.052271,19.710772 
	C11.987297,35.202576 12.168016,50.695408 12.156009,66.787613 
	C11.936532,67.771614 11.717056,68.755615 10.763501,70.304283 
	C10.516291,71.073189 10.055448,71.841499 10.053293,72.611092 
	C10.006450,89.341972 9.982023,106.073158 10.067234,122.803703 
	C10.073143,123.963799 10.967764,125.119362 11.799420,126.825569 
	C13.553088,128.884476 15.306757,130.943390 16.985134,133.004517 
	C16.985134,133.004517 16.977198,132.929611 17.157221,133.334290 
z"/>
<path fill="#FCFCFC" opacity="1.000000" stroke="none" 
	d="
M133.901169,63.983040 
	C133.944031,64.164436 133.986908,64.345833 134.094971,65.241486 
	C134.306168,86.403038 134.452148,106.850327 134.598129,127.297623 
	C132.319427,129.592636 130.040726,131.887634 127.035530,134.282562 
	C105.570816,134.263916 84.832588,134.145309 64.094368,134.026718 
	C64.094368,134.026718 64.001007,133.891495 63.967342,133.535843 
	C63.559174,129.327866 64.129959,125.045288 62.613186,121.712883 
	C59.465214,114.796684 52.970520,111.927895 45.680882,110.990578 
	C38.272617,110.038010 31.144787,110.940323 24.757578,115.369202 
	C21.114185,107.344521 20.575880,99.817436 22.716007,91.908356 
	C25.374491,82.083633 30.959156,74.171898 38.087620,67.244392 
	C41.054119,64.361526 41.320663,62.508236 37.000179,61.288204 
	C40.500042,42.856548 38.796078,45.427891 54.420994,50.272137 
	C55.257370,50.531441 56.029892,50.996712 56.208073,51.078751 
	C55.454979,52.888737 54.844772,54.355312 54.234562,55.821884 
	C55.556919,55.934021 57.052662,56.510143 58.176220,56.090290 
	C84.747139,46.161175 110.013184,48.360886 133.901169,63.983040 
M73.248337,97.020721 
	C76.067787,96.269341 78.887245,95.517960 81.996475,94.689354 
	C85.618729,99.340508 91.057495,100.990303 96.828903,99.925888 
	C99.630882,99.409119 102.083015,96.706398 104.500092,94.753853 
	C104.805656,94.507011 104.195656,92.504738 103.501564,91.885155 
	C103.110435,91.536026 101.364395,92.054314 100.768303,92.688789 
	C96.244331,97.504196 89.457191,96.943207 85.591385,91.314789 
	C88.044853,90.308578 90.498329,89.302368 93.551521,88.050201 
	C89.595192,82.943710 84.801987,82.949463 80.273521,83.074280 
	C78.107803,83.133980 75.982925,84.675873 73.839554,85.546440 
	C75.190071,87.040344 76.550446,88.525604 77.879242,90.038582 
	C78.054985,90.238693 78.069855,90.580093 78.401085,91.602890 
	C75.553383,92.015297 72.813515,92.868584 70.149323,92.675819 
	C67.196472,92.462166 62.873306,93.025642 63.924286,87.500443 
	C64.017052,87.012741 63.019642,85.832260 62.516808,85.825310 
	C61.666767,85.813568 60.478138,86.247627 60.007607,86.905830 
	C57.711395,90.117859 59.278107,93.133064 61.979816,94.485527 
	C65.093941,96.044441 68.872116,96.276833 73.248337,97.020721 
M50.876564,72.180885 
	C47.423664,74.004021 46.576183,76.945404 48.313511,80.151482 
	C50.130939,83.505386 53.720398,83.918449 56.547493,82.183739 
	C58.539646,80.961342 60.818233,77.962578 60.654671,75.944511 
	C60.329960,71.938210 56.760426,71.082542 53.060028,71.641975 
	C52.567543,71.716438 52.083748,71.848404 50.876564,72.180885 
M118.132431,79.305595 
	C114.404182,81.130959 112.827110,83.922539 115.017059,87.749008 
	C116.936600,91.103004 120.468246,91.390762 123.217949,89.660019 
	C125.040726,88.512718 126.927216,85.377335 126.654655,83.430161 
	C126.106155,79.511719 122.378471,79.006828 118.132431,79.305595 
z"/>
<path fill="#FDFCFB" opacity="1.000000" stroke="none" 
	d="
M17.060425,133.002304 
	C15.306757,130.943390 13.553088,128.884476 11.745590,126.126228 
	C11.772914,118.462135 11.952133,111.496834 11.913149,104.532753 
	C11.848225,92.934631 11.643460,81.337288 11.497580,69.739616 
	C11.717056,68.755615 11.936532,67.771614 12.435549,66.234375 
	C13.235533,64.637665 13.751908,63.592152 14.277013,62.551041 
	C34.350433,22.752052 83.414261,10.025295 120.229836,35.213379 
	C124.999031,38.476315 129.169815,42.613899 133.617798,46.346336 
	C133.746094,50.133965 133.874405,53.921597 133.607849,58.046726 
	C118.498497,48.680202 101.994576,44.326771 84.824493,46.272552 
	C70.626083,47.881573 57.097584,48.646767 43.880157,42.506454 
	C43.731098,42.437206 43.563141,42.407169 43.402485,42.364559 
	C39.676949,41.376556 37.115227,42.767441 36.120750,46.409443 
	C34.680393,51.684357 33.676388,57.080345 32.177006,62.336475 
	C31.310442,65.374252 30.372320,68.632553 28.547152,71.116028 
	C18.305601,85.051468 13.088655,99.712166 20.526464,116.714447 
	C20.853693,117.462463 20.852974,118.830872 20.383963,119.374138 
	C16.921469,123.384811 16.660295,128.095947 17.060425,133.002304 
z"/>
<path fill="#FAEB8C" opacity="1.000000" stroke="none" 
	d="
M133.747818,45.861919 
	C129.169815,42.613899 124.999031,38.476315 120.229836,35.213379 
	C83.414261,10.025295 34.350433,22.752052 14.277013,62.551041 
	C13.751908,63.592152 13.235533,64.637665 12.484611,65.934486 
	C12.168016,50.695408 11.987297,35.202576 12.052271,19.710772 
	C12.072289,14.938036 15.180228,12.034206 20.101057,12.024513 
	C55.430946,11.954914 90.761139,11.948601 126.090958,12.034860 
	C131.127457,12.047157 133.944809,15.157087 133.991623,20.386522 
	C134.066193,28.715841 133.926773,37.047077 133.747818,45.861919 
z"/>
<path fill="#111110" opacity="1.000000" stroke="none" 
	d="
M17.022779,133.003418 
	C16.660295,128.095947 16.921469,123.384811 20.383963,119.374138 
	C20.852974,118.830872 20.853693,117.462463 20.526464,116.714447 
	C13.088655,99.712166 18.305601,85.051468 28.547152,71.116028 
	C30.372320,68.632553 31.310442,65.374252 32.177006,62.336475 
	C33.676388,57.080345 34.680393,51.684357 36.120750,46.409443 
	C37.115227,42.767441 39.676949,41.376556 43.402485,42.364559 
	C43.563141,42.407169 43.731098,42.437206 43.880157,42.506454 
	C57.097584,48.646767 70.626083,47.881573 84.824493,46.272552 
	C101.994576,44.326771 118.498497,48.680202 133.544159,58.543980 
	C133.931946,60.212963 133.988571,61.722195 133.973190,63.607231 
	C110.013184,48.360886 84.747139,46.161175 58.176220,56.090290 
	C57.052662,56.510143 55.556919,55.934021 54.234562,55.821884 
	C54.844772,54.355312 55.454979,52.888737 56.208073,51.078751 
	C56.029892,50.996712 55.257370,50.531441 54.420994,50.272137 
	C38.796078,45.427891 40.500042,42.856548 37.000179,61.288204 
	C41.320663,62.508236 41.054119,64.361526 38.087620,67.244392 
	C30.959156,74.171898 25.374491,82.083633 22.716007,91.908356 
	C20.575880,99.817436 21.114185,107.344521 24.757578,115.369202 
	C31.144787,110.940323 38.272617,110.038010 45.680882,110.990578 
	C52.970520,111.927895 59.465214,114.796684 62.613186,121.712883 
	C64.129959,125.045288 63.559174,129.327866 63.893391,133.571640 
	C57.228794,147.142014 24.940601,147.808624 18.045601,133.861328 
	C17.546068,133.155121 17.280237,133.008621 16.977198,132.929611 
	C16.977198,132.929611 16.985134,133.004517 17.022779,133.003418 
M34.118988,138.832169 
	C39.586941,138.601181 45.088982,138.667816 50.512257,138.046722 
	C54.996071,137.533218 58.889046,135.498520 60.034801,130.524155 
	C61.036255,126.176270 58.614738,121.129021 53.902817,118.371010 
	C47.043297,114.355949 39.679089,113.915184 32.206650,116.418129 
	C25.826939,118.555054 21.091600,124.037560 21.229811,128.735092 
	C21.374840,133.664505 25.256695,136.886307 34.118988,138.832169 
z"/>
<path fill="#EFB63A" opacity="1.000000" stroke="none" 
	d="
M134.942444,126.991669 
	C134.452148,106.850327 134.306168,86.403038 134.217850,65.492630 
	C134.849762,66.065170 135.919861,67.098534 135.924683,68.136826 
	C136.012283,87.041313 135.978134,105.946426 135.930450,124.851303 
	C135.928909,125.463310 135.510712,126.074272 134.942444,126.991669 
z"/>
<path fill="#EFB63D" opacity="1.000000" stroke="none" 
	d="
M11.130541,70.021950 
	C11.643460,81.337288 11.848225,92.934631 11.913149,104.532753 
	C11.952133,111.496834 11.772914,118.462135 11.570432,125.851959 
	C10.967764,125.119362 10.073143,123.963799 10.067234,122.803703 
	C9.982023,106.073158 10.006450,89.341972 10.053293,72.611092 
	C10.055448,71.841499 10.516291,71.073189 11.130541,70.021950 
z"/>
<path fill="#EFB63A" opacity="1.000000" stroke="none" 
	d="
M64.174423,134.416382 
	C84.832588,134.145309 105.570816,134.263916 126.801735,134.487335 
	C125.951363,135.061111 124.610237,135.931885 123.264915,135.938400 
	C104.767090,136.028336 86.268585,136.020874 67.770599,135.948120 
	C66.597084,135.943512 65.426445,135.203796 64.174423,134.416382 
z"/>
<path fill="#FDFCFB" opacity="1.000000" stroke="none" 
	d="
M17.067209,133.131958 
	C17.280237,133.008621 17.546068,133.155121 17.822598,133.592529 
	C17.555565,133.769653 17.317802,133.609100 17.067209,133.131958 
z"/>
<path fill="#0E0E0E" opacity="1.000000" stroke="none" 
	d="
M72.805122,97.053009 
	C68.872116,96.276833 65.093941,96.044441 61.979816,94.485527 
	C59.278107,93.133064 57.711395,90.117859 60.007607,86.905830 
	C60.478138,86.247627 61.666767,85.813568 62.516808,85.825310 
	C63.019642,85.832260 64.017052,87.012741 63.924286,87.500443 
	C62.873306,93.025642 67.196472,92.462166 70.149323,92.675819 
	C72.813515,92.868584 75.553383,92.015297 78.401085,91.602890 
	C78.069855,90.580093 78.054985,90.238693 77.879242,90.038582 
	C76.550446,88.525604 75.190071,87.040344 73.839554,85.546440 
	C75.982925,84.675873 78.107803,83.133980 80.273521,83.074280 
	C84.801987,82.949463 89.595192,82.943710 93.551521,88.050201 
	C90.498329,89.302368 88.044853,90.308578 85.591980,91.313599 
	C89.457191,96.943207 96.244331,97.504196 100.768303,92.688789 
	C101.364395,92.054314 103.110435,91.536026 103.501564,91.885155 
	C104.195656,92.504738 104.805656,94.507011 104.500092,94.753853 
	C102.083015,96.706398 99.630882,99.409119 96.828903,99.925888 
	C91.057495,100.990303 85.618729,99.340508 81.996475,94.689354 
	C78.887245,95.517960 76.067787,96.269341 72.805122,97.053009 
z"/>
<path fill="#0C0C0C" opacity="1.000000" stroke="none" 
	d="
M51.236244,72.067314 
	C52.083748,71.848404 52.567543,71.716438 53.060028,71.641975 
	C56.760426,71.082542 60.329960,71.938210 60.654671,75.944511 
	C60.818233,77.962578 58.539646,80.961342 56.547493,82.183739 
	C53.720398,83.918449 50.130939,83.505386 48.313511,80.151482 
	C46.576183,76.945404 47.423664,74.004021 51.236244,72.067314 
z"/>
<path fill="#0E0E0E" opacity="1.000000" stroke="none" 
	d="
M118.511719,79.197250 
	C122.378471,79.006828 126.106155,79.511719 126.654655,83.430161 
	C126.927216,85.377335 125.040726,88.512718 123.217949,89.660019 
	C120.468246,91.390762 116.936600,91.103004 115.017059,87.749008 
	C112.827110,83.922539 114.404182,81.130959 118.511719,79.197250 
z"/>
<path fill="#FAFAFA" opacity="1.000000" stroke="none" 
	d="
M33.686859,138.773773 
	C25.256695,136.886307 21.374840,133.664505 21.229811,128.735092 
	C21.091600,124.037560 25.826939,118.555054 32.206650,116.418129 
	C39.679089,113.915184 47.043297,114.355949 53.902817,118.371010 
	C58.614738,121.129021 61.036255,126.176270 60.034801,130.524155 
	C58.889046,135.498520 54.996071,137.533218 50.512257,138.046722 
	C45.088982,138.667816 39.586941,138.601181 33.686859,138.773773 
z"/>
</svg>